<?xml version="1.0" encoding="UTF-8"?>
<svg version="1.1" viewBox="100 80 650 500" xmlns="http://www.w3.org/2000/svg" xmlns:xlink="http://www.w3.org/1999/xlink">
 <defs>
  <symbol id="o" overflow="visible">
   <path d="m28.859-1.7188c-1.4922 0.77344-3.043 1.3516-4.6562 1.7344-1.6055 0.39453-3.2891 0.59375-5.0469 0.59375-5.2305 0-9.375-1.457-12.438-4.375-3.0547-2.9258-4.5781-6.8945-4.5781-11.906 0-5.0195 1.5234-8.9883 4.5781-11.906 3.0625-2.9258 7.207-4.3906 12.438-4.3906 1.7578 0 3.4414 0.19922 5.0469 0.59375 1.6133 0.38672 3.1641 0.96484 4.6562 1.7344v6.5c-1.5-1.0195-2.9805-1.7695-4.4375-2.25-1.4609-0.47656-2.9961-0.71875-4.6094-0.71875-2.8867 0-5.1562 0.92969-6.8125 2.7812-1.6562 1.8555-2.4844 4.4062-2.4844 7.6562 0 3.2422 0.82812 5.7891 2.4844 7.6406 1.6562 1.8438 3.9258 2.7656 6.8125 2.7656 1.6133 0 3.1484-0.23438 4.6094-0.70312 1.457-0.47656 2.9375-1.2266 4.4375-2.25z"/>
  </symbol>
  <symbol id="b" overflow="visible">
   <path d="m21.125-17.141c-0.66797-0.3125-1.3281-0.53906-1.9844-0.6875-0.64844-0.14453-1.2969-0.21875-1.9531-0.21875-1.9375 0-3.4336 0.62109-4.4844 1.8594-1.043 1.2422-1.5625 3.0156-1.5625 5.3281v10.859h-7.5156v-23.562h7.5156v3.875c0.96875-1.5391 2.0781-2.6641 3.3281-3.375 1.2578-0.70703 2.7695-1.0625 4.5312-1.0625 0.25 0 0.51953 0.011719 0.8125 0.03125 0.28906 0.023438 0.71875 0.070312 1.2812 0.14062z"/>
  </symbol>
  <symbol id="a" overflow="visible">
   <path d="m27.141-11.844v2.1406h-17.609c0.17578 1.7734 0.8125 3.1016 1.9062 3.9844 1.0938 0.88672 2.625 1.3281 4.5938 1.3281 1.582 0 3.2031-0.23438 4.8594-0.70312 1.6641-0.47656 3.375-1.1914 5.125-2.1406v5.7969c-1.7812 0.67969-3.5625 1.1875-5.3438 1.5312s-3.5625 0.51562-5.3438 0.51562c-4.2617 0-7.5742-1.082-9.9375-3.25-2.3672-2.1641-3.5469-5.207-3.5469-9.125 0-3.832 1.1602-6.8477 3.4844-9.0469 2.3203-2.207 5.5156-3.3125 9.5781-3.3125 3.707 0 6.6719 1.1172 8.8906 3.3438 2.2266 2.2305 3.3438 5.2109 3.3438 8.9375zm-7.75-2.5c0-1.4258-0.41797-2.5781-1.25-3.4531-0.83594-0.88281-1.9219-1.3281-3.2656-1.3281-1.4609 0-2.6484 0.41406-3.5625 1.2344-0.90625 0.82422-1.4766 2.0078-1.7031 3.5469z"/>
  </symbol>
  <symbol id="e" overflow="visible">
   <path d="m14.172-10.594c-1.5625 0-2.7461 0.26562-3.5469 0.79688-0.79297 0.53125-1.1875 1.3125-1.1875 2.3438 0 0.96094 0.31641 1.7109 0.95312 2.25 0.64453 0.54297 1.5352 0.8125 2.6719 0.8125 1.4141 0 2.6094-0.50781 3.5781-1.5312 0.96875-1.0195 1.4531-2.2891 1.4531-3.8125v-0.85938zm11.516-2.8438v13.438h-7.5938v-3.4844c-1.0117 1.4297-2.1523 2.4688-3.4219 3.125-1.2617 0.64453-2.793 0.96875-4.5938 0.96875-2.4375 0-4.4219-0.70703-5.9531-2.125-1.5234-1.4258-2.2812-3.2734-2.2812-5.5469 0-2.7695 0.94531-4.7969 2.8438-6.0781 1.9062-1.2891 4.8945-1.9375 8.9688-1.9375h4.4375v-0.59375c0-1.1875-0.47656-2.0547-1.4219-2.6094-0.9375-0.5625-2.4023-0.84375-4.3906-0.84375-1.6172 0-3.1172 0.16406-4.5 0.48438-1.3867 0.32422-2.6797 0.80859-3.875 1.4531v-5.7344c1.6133-0.39453 3.2344-0.69141 4.8594-0.89062 1.6328-0.20703 3.2656-0.3125 4.8906-0.3125 4.25 0 7.3164 0.83984 9.2031 2.5156 1.8828 1.6797 2.8281 4.4023 2.8281 8.1719z"/>
  </symbol>
  <symbol id="i" overflow="visible">
   <path d="m11.844-30.25v6.6875h7.7656v5.3906h-7.7656v9.9844c0 1.0938 0.21094 1.8359 0.64062 2.2188 0.4375 0.38672 1.3008 0.57812 2.5938 0.57812h3.875v5.3906h-6.4531c-2.9805 0-5.0898-0.61719-6.3281-1.8594-1.2422-1.2383-1.8594-3.3477-1.8594-6.3281v-9.9844h-3.75v-5.3906h3.75v-6.6875z"/>
  </symbol>
  <symbol id="d" overflow="visible">
   <path d="m19.641-20.109v-12.625h7.5781v32.734h-7.5781v-3.4062c-1.0312 1.3867-2.1719 2.4023-3.4219 3.0469s-2.6953 0.96875-4.3281 0.96875c-2.9062 0-5.293-1.1484-7.1562-3.4531-1.8672-2.3125-2.7969-5.2852-2.7969-8.9219 0-3.625 0.92969-6.5859 2.7969-8.8906 1.8633-2.3125 4.25-3.4688 7.1562-3.4688 1.625 0 3.0625 0.32812 4.3125 0.98438 1.2578 0.64844 2.4062 1.6562 3.4375 3.0312zm-4.9531 15.25c1.6016 0 2.8281-0.58594 3.6719-1.7656 0.85156-1.1758 1.2812-2.8906 1.2812-5.1406 0-2.2383-0.42969-3.9453-1.2812-5.125-0.84375-1.1758-2.0703-1.7656-3.6719-1.7656-1.6055 0-2.8359 0.58984-3.6875 1.7656-0.84375 1.1797-1.2656 2.8867-1.2656 5.125 0 2.25 0.42188 3.9648 1.2656 5.1406 0.85156 1.1797 2.082 1.7656 3.6875 1.7656z"/>
  </symbol>
  <symbol id="c" overflow="visible">
   <path d="m16.156-4.8594c1.6133 0 2.8438-0.58594 3.6875-1.7656 0.85156-1.1758 1.2812-2.8906 1.2812-5.1406 0-2.2383-0.42969-3.9453-1.2812-5.125-0.84375-1.1758-2.0742-1.7656-3.6875-1.7656-1.6172 0-2.8555 0.59375-3.7188 1.7812-0.86719 1.1797-1.2969 2.8828-1.2969 5.1094 0 2.2422 0.42969 3.9531 1.2969 5.1406 0.86328 1.1797 2.1016 1.7656 3.7188 1.7656zm-5.0156-15.25c1.0391-1.375 2.1914-2.3828 3.4531-3.0312 1.2578-0.65625 2.7109-0.98438 4.3594-0.98438 2.9062 0 5.2891 1.1562 7.1562 3.4688 1.8633 2.3047 2.7969 5.2656 2.7969 8.8906 0 3.6367-0.93359 6.6094-2.7969 8.9219-1.8672 2.3047-4.25 3.4531-7.1562 3.4531-1.6484 0-3.1016-0.32422-4.3594-0.96875-1.2617-0.65625-2.4141-1.6719-3.4531-3.0469v3.4062h-7.5156v-32.734h7.5156z"/>
  </symbol>
  <symbol id="h" overflow="visible">
   <path d="m0.53125-23.562h7.5312l6.3281 15.984 5.375-15.984h7.5312l-9.9062 25.797c-0.99219 2.6133-2.1523 4.4414-3.4844 5.4844-1.3242 1.0508-3.0703 1.5781-5.2344 1.5781h-4.3594v-4.9375h2.3594c1.2695 0 2.1953-0.20312 2.7812-0.60938 0.58203-0.40625 1.0352-1.1367 1.3594-2.1875l0.20312-0.65625z"/>
  </symbol>
  <symbol id="g" overflow="visible">
   <path d="m16.531-19.25c1.2812 0 2.25-0.27344 2.9062-0.82812 0.65625-0.5625 0.98438-1.3906 0.98438-2.4844 0-1.082-0.32812-1.9062-0.98438-2.4688-0.65625-0.57031-1.625-0.85938-2.9062-0.85938h-4.4844v6.6406zm0.28125 13.734c1.625 0 2.8438-0.34375 3.6562-1.0312 0.82031-0.6875 1.2344-1.7227 1.2344-3.1094 0-1.3516-0.40625-2.3672-1.2188-3.0469-0.8125-0.6875-2.0391-1.0312-3.6719-1.0312h-4.7656v8.2188zm7.5312-11.297c1.7266 0.51172 3.0703 1.4492 4.0312 2.8125 0.95703 1.3555 1.4375 3.0234 1.4375 5 0 3.0312-1.0273 5.293-3.0781 6.7812-2.0547 1.4805-5.168 2.2188-9.3438 2.2188h-13.438v-31.406h12.156c4.3633 0 7.5195 0.66406 9.4688 1.9844 1.957 1.3125 2.9375 3.4219 2.9375 6.3281 0 1.5312-0.35938 2.8359-1.0781 3.9062-0.71094 1.0742-1.7422 1.8672-3.0938 2.375z"/>
  </symbol>
  <symbol id="f" overflow="visible">
   <path d="m27.297-14.344v14.344h-7.5625v-10.984c0-2.0312-0.046875-3.4297-0.14062-4.2031-0.09375-0.76953-0.25-1.3359-0.46875-1.7031-0.30469-0.48828-0.71094-0.86719-1.2188-1.1406-0.5-0.28125-1.0703-0.42188-1.7031-0.42188-1.5742 0-2.8125 0.60938-3.7188 1.8281-0.89844 1.2109-1.3438 2.8867-1.3438 5.0312v11.594h-7.5156v-23.562h7.5156v3.4531c1.1445-1.375 2.3516-2.3828 3.625-3.0312 1.2812-0.65625 2.6914-0.98438 4.2344-0.98438 2.7188 0 4.7812 0.83594 6.1875 2.5 1.4062 1.668 2.1094 4.0938 2.1094 7.2812z"/>
  </symbol>
  <symbol id="n" overflow="visible">
   <path d="m3.9531-31.406h8.0938v25.281h14.219v6.125h-22.312z"/>
  </symbol>
  <symbol id="m" overflow="visible">
   <path d="m3.625-32.734h7.5156v17.828l8.6719-8.6562h8.75l-11.5 10.812 12.406 12.75h-9.125l-9.2031-9.8281v9.8281h-7.5156z"/>
  </symbol>
  <symbol id="l" overflow="visible">
   <path d="m19.125-32.734v4.9531h-4.1719c-1.0625 0-1.8086 0.19531-2.2344 0.57812-0.41797 0.38672-0.625 1.0547-0.625 2v1.6406h6.4375v5.3906h-6.4375v18.172h-7.5312v-18.172h-3.7344v-5.3906h3.7344v-1.6406c0-2.5625 0.71094-4.457 2.1406-5.6875 1.4375-1.2266 3.6562-1.8438 6.6562-1.8438z"/>
  </symbol>
  <symbol id="k" overflow="visible">
   <path d="m27.297-14.344v14.344h-7.5625v-10.938c0-2.0625-0.046875-3.4766-0.14062-4.25-0.09375-0.76953-0.25-1.3359-0.46875-1.7031-0.30469-0.48828-0.71094-0.86719-1.2188-1.1406-0.5-0.28125-1.0703-0.42188-1.7031-0.42188-1.5742 0-2.8125 0.60938-3.7188 1.8281-0.89844 1.2109-1.3438 2.8867-1.3438 5.0312v11.594h-7.5156v-32.734h7.5156v12.625c1.1445-1.375 2.3516-2.3828 3.625-3.0312 1.2812-0.65625 2.6914-0.98438 4.2344-0.98438 2.7188 0 4.7812 0.83594 6.1875 2.5 1.4062 1.668 2.1094 4.0938 2.1094 7.2812z"/>
  </symbol>
  <symbol id="j" overflow="visible">
   <path d="m3.625-23.562h7.5156v23.141c0 3.1562-0.75781 5.5625-2.2656 7.2188-1.5117 1.6641-3.7031 2.5-6.5781 2.5h-3.7344v-4.9375h1.3125c1.4258 0 2.4062-0.32422 2.9375-0.96875 0.53906-0.64844 0.8125-1.918 0.8125-3.8125zm0-9.1719h7.5156v6.1406h-7.5156z"/>
  </symbol>
 </defs>
 <g>
  <path d="m185.19 473.85h275.69c4.7578 0 8.6172-3.8594 8.6172-8.6172 0-4.7578-3.8594-8.6133-8.6172-8.6133h-275.69c-4.7578 0-8.6133 3.8555-8.6133 8.6133 0 4.7578 3.8555 8.6172 8.6133 8.6172z"/>
  <path d="m185.19 411.73h275.69c4.7578 0 8.6172-3.8594 8.6172-8.6172 0-4.7578-3.8594-8.6133-8.6172-8.6133h-275.69c-4.7578 0-8.6133 3.8555-8.6133 8.6133 0 4.7578 3.8555 8.6172 8.6133 8.6172z"/>
  <path d="m185.19 349.79h137.85c4.7578 0 8.6133-3.8594 8.6133-8.6172 0-4.7578-3.8555-8.6133-8.6133-8.6133h-137.85c-4.7578 0-8.6133 3.8555-8.6133 8.6133 0 4.7578 3.8555 8.6172 8.6133 8.6172z"/>
  <path d="m185.19 287.84h137.85c4.7578 0 8.6133-3.8555 8.6133-8.6133 0-4.7617-3.8555-8.6172-8.6133-8.6172h-137.85c-4.7578 0-8.6133 3.8555-8.6133 8.6172 0 4.7578 3.8555 8.6133 8.6133 8.6133z"/>
  <path d="m185.19 225.81h137.85c4.7578 0 8.6133-3.8555 8.6133-8.6133 0-4.7578-3.8555-8.6172-8.6133-8.6172h-137.85c-4.7578 0-8.6133 3.8594-8.6133 8.6172 0 4.7578 3.8555 8.6133 8.6133 8.6133z"/>
  <path d="m185.19 163.69h137.85c4.7578 0 8.6133-3.8555 8.6133-8.6133s-3.8555-8.6172-8.6133-8.6172h-137.85c-4.7578 0-8.6133 3.8594-8.6133 8.6172s3.8555 8.6133 8.6133 8.6133z"/>
  <path d="m185.19 103.38h137.85c4.7578 0 8.6133-3.8555 8.6133-8.6133 0-4.7578-3.8555-8.6172-8.6133-8.6172h-137.85c-4.7578 0-8.6133 3.8594-8.6133 8.6172 0 4.7578 3.8555 8.6133 8.6133 8.6133z"/>
  <path d="m154.17 555.69h337.98c11.266-0.023437 22.062-4.5195 30.012-12.5 7.9492-7.9805 12.398-18.793 12.379-30.059v-157.92h17.23c9.793-0.019532 19.184-3.9219 26.109-10.848 6.9258-6.9297 10.828-16.316 10.848-26.109v-111.48c-0.019531-9.7969-3.9219-19.184-10.848-26.109-6.9258-6.9258-16.316-10.828-26.109-10.852h-17.23v-36.27c0.14453-1.4648-0.0625-2.9414-0.60547-4.3086-0.43359-1.043-1.0469-2.0039-1.8086-2.8438l-88.223-87.961-31.617-31.621c-0.71484-0.66406-1.5273-1.2188-2.4141-1.6367h-1.0352 0.003906c-0.65625-0.089844-1.3242-0.089844-1.9805 0l-0.86328-0.85938h-251.83c-11.246 0.13281-21.992 4.6602-29.945 12.613-7.9531 7.9531-12.48 18.699-12.613 29.945v466.27c0.13281 11.246 4.6602 21.992 12.613 29.945 7.9531 7.9531 18.699 12.48 29.945 12.613zm397.25-369c5.2891 0.023438 10.344 2.1562 14.051 5.9258 3.7031 3.7695 5.75 8.8633 5.6797 14.148v112c-0.023438 5.2266-2.1094 10.23-5.8047 13.926-3.6914 3.6953-8.6992 5.7812-13.926 5.8047h-142.67c-5.3672 0.070312-10.535-2.0469-14.305-5.8672-3.7734-3.8203-5.8242-9.0156-5.6836-14.379v-111.48c0-5.2344 2.0781-10.25 5.7773-13.949 3.6992-3.7031 8.7188-5.7812 13.953-5.7812zm-136.81-152.92 15.938 15.852 74.266 74.266h-64.359c-6.793 0.13672-13.355-2.457-18.215-7.2031-4.8594-4.75-7.6094-11.246-7.6289-18.043zm-285.77 13.094c0-6.7188 2.668-13.16 7.418-17.91s11.191-7.418 17.91-7.418h243.21v77.539c0.13672 11.285 4.7539 22.059 12.832 29.941 8.0781 7.8867 18.957 12.238 30.246 12.102h76.676v28.344h-108.38c-9.9023-0.046875-19.406 3.8711-26.398 10.879-6.9922 7.0117-10.891 16.527-10.82 26.426v112c0 9.8008 3.8945 19.203 10.824 26.133 6.9336 6.9336 16.332 10.828 26.137 10.828h108.64v157.4c0.023437 6.6641-2.5898 13.07-7.2695 17.812-4.6797 4.7461-11.047 7.4492-17.715 7.5156h-337.98c-6.7188 0-13.16-2.668-17.91-7.418s-7.418-11.191-7.418-17.91z"/>
  <path d="m460.19 304.21 19.902-57.293 19.812 57.293h20.074l28.949-83.742h-18.18l-20.762 63.32-20.852-63.32h-18.176l-20.766 63.32-20.762-63.32h-18.266l28.949 83.742z"/>
 </g>
</svg>
